<svg xmlns="http://www.w3.org/2000/svg" xmlns:xlink="http://www.w3.org/1999/xlink" viewBox="0 0 1380.03 362"><defs><style>.cls-1{fill:none;}.cls-2{clip-path:url(#clip-path);}.cls-3{fill:#231f20;}</style><clipPath id="clip-path" transform="translate(0)"><rect class="cls-1" width="1380.04" height="362"/></clipPath></defs><g id="Layer_2" data-name="Layer 2"><g id="Layer_1-2" data-name="Layer 1"><g class="cls-2"><path class="cls-3" d="M1259.37,315.36c-10.14,0-18.25-2.54-23.83-8.12-4.56-4.56-7.1-10.14-7.1-18.25,0-7.6,2.54-14.19,7.61-19.26q9.89-9.9,31.94-12.17l52.22-5.58c-.51,22.82-17.75,63.38-60.84,63.38m13.18-214c-110,0-110.53,84.67-110.53,91.77v2h60.85v-2c0-4.56.5-41.58,48.16-41.58,33,0,49.18,16.23,49.18,43.1v16.73L1253.79,216q-45.63,3-68.44,25.86-18.25,18.25-18.26,50.19c0,20.28,6.6,37,18.76,49.18C1199,354.39,1218.3,362,1241.12,362c45.12,0,72-23.32,84.67-73h8.62l-14.2,65.91H1380V194.69c0-59.83-36.51-93.29-107.49-93.29M952.13,354.9V226.63c0-43.6,22.31-70.47,57.29-70.47,31.44,0,47.15,18.76,47.15,55.26V354.9h61.35V201.79c0-65.91-30.93-100.39-89.23-100.39-40.56,0-68.45,24.84-83.15,73h-8.62l15.21-65.91H892.3V354.9ZM710.8,315.36c-10.14,0-18.25-2.54-23.83-8.12-4.56-4.56-7.09-10.14-7.09-18.25,0-7.6,2.53-14.19,7.6-19.26q9.88-9.9,31.94-12.17L771.64,252c-.5,22.82-17.74,63.38-60.84,63.38M724,101.4c-110,0-110.53,84.67-110.53,91.77v2H674.3v-2c0-4.56.51-41.58,48.16-41.58,33,0,49.18,16.23,49.18,43.1v16.73L705.23,216q-45.63,3-68.45,25.86Q618.53,260.09,618.53,292c0,20.28,6.59,37,18.76,49.18C650.47,354.39,669.74,362,692.55,362c45.12,0,72-23.32,84.67-73h8.62l-14.2,65.91h59.83V194.69c0-59.83-36.5-93.29-107.48-93.29m-159.71,7.1H504.46V354.9h59.82Zm3.05-97.35H501.92V73.52h65.41ZM438.55,0H378.73V354.9h59.82ZM312.82,108.5H253V354.9h59.83Zm3-97.35h-65.4V73.52h65.4ZM212.94,354.9V296.09H62.87V0H0V354.9Z" transform="translate(0)"/></g></g></g></svg>